<svg width="55" height="49" viewBox="0 0 55 49" fill="none" xmlns="http://www.w3.org/2000/svg">
<path d="M50.2223 0.0131073H3.98072C1.8383 0.0131073 0.101532 1.76742 0.101532 3.93147V44.0947C0.101532 46.2588 1.8383 48.0131 3.98072 48.0131H50.2223C52.3648 48.0131 54.1015 46.2588 54.1015 44.0947V3.93147C54.1015 1.76742 52.3648 0.0131073 50.2223 0.0131073Z" fill="url(#paint0_linear_3_21)"/>
<path d="M37.2965 26.0237C36.699 25.8035 36.1186 25.5479 35.5413 25.2864C35.3783 25.211 35.2535 25.0493 35.1073 24.9323C35.0428 24.8846 34.9611 24.8385 34.8823 24.8244C34.613 24.7843 34.4942 24.6905 34.4344 24.4255C34.3484 24.0775 34.2882 23.7312 34.3622 23.3694C34.3945 23.2094 34.453 23.1109 34.6023 23.0507C34.9193 22.9276 35.232 22.7892 35.546 22.6567C35.7801 22.5582 35.7956 22.4751 35.7078 22.2334C35.4385 21.4681 35.238 20.6877 35.1722 19.8699C35.1322 19.3528 35.1413 18.8245 35.0182 18.3165H34.9967C34.986 18.2705 34.9799 18.221 34.9658 18.175C34.7395 17.2806 33.7789 16.7953 32.9689 16.7416C32.9658 16.7416 32.9598 16.7386 32.9503 16.7386C32.8901 16.7356 32.8303 16.7447 32.7701 16.7476C32.4315 16.7953 32.1575 17.0062 31.8387 17.1004C31.8542 17.3159 31.871 17.5315 31.8805 17.7301C31.8913 17.932 31.902 18.1337 31.9144 18.332C31.9945 19.3129 32.2224 20.3087 32.632 21.4667C33.0325 22.5938 32.632 23.5377 31.5772 24.0056C31.5569 24.1442 31.5354 24.2845 31.5002 24.4213C31.4524 24.635 31.3415 24.7215 31.1754 24.7752C31.1891 24.7861 31.2063 24.7891 31.2202 24.8016C31.3355 24.8923 31.4524 25.0003 31.5712 25.1108C32.2457 25.4541 33.1508 25.8529 34.0761 26.1962C35.2479 26.6255 36.0282 27.2553 36.5578 27.9345C37.3554 27.9345 38.1482 27.9345 38.9471 27.9345C38.8099 26.9429 38.2098 26.3562 37.2965 26.0237Z" fill="white"/>
<path d="M22.6891 24.4243C22.6568 24.2858 22.6336 24.1473 22.6137 24.0071C21.559 23.536 21.1636 22.5939 21.556 21.4716C21.9685 20.3109 22.1965 19.3129 22.2766 18.3295C22.2933 18.1201 22.3028 17.9092 22.3106 17.6919C22.3166 17.4997 22.326 17.2979 22.3415 17.0915C21.9921 16.8914 21.6012 16.7649 21.2316 16.7404C21.2256 16.7404 21.2225 16.7374 21.2131 16.7374C21.1516 16.7343 21.0931 16.7434 21.0329 16.7464C20.6909 16.7942 20.4155 17.0097 20.0921 17.1022C19.6735 17.227 19.4132 17.612 19.2562 18.0306C19.0312 18.6233 19.0747 19.2544 19.0252 19.8674C18.959 20.6834 18.7589 21.4639 18.4896 22.2291C18.4018 22.4708 18.4173 22.5539 18.6496 22.6524C18.9654 22.7849 19.2777 22.9234 19.5947 23.0465C19.7487 23.1067 19.8042 23.2065 19.8348 23.3652C19.9088 23.724 19.8486 24.0733 19.7626 24.42C19.7023 24.685 19.584 24.7788 19.3147 24.8218C19.236 24.8373 19.1547 24.8787 19.0897 24.9298C18.9404 25.0438 18.8187 25.2098 18.6557 25.2825C18.0784 25.5475 17.4981 25.7996 16.9005 26.0199C15.9877 26.3572 15.3871 26.9435 15.2379 27.9351C16.0337 27.9351 16.83 27.9351 17.6271 27.9351C18.1596 27.2562 18.9404 26.6265 20.1106 26.1967C21.0342 25.8534 21.9397 25.4546 22.6246 25.1406C22.7291 24.9991 22.8478 24.8881 22.9739 24.7943C22.9864 24.7853 23.0001 24.7806 23.0092 24.771C22.8431 24.7211 22.7386 24.6322 22.6891 24.4243Z" fill="white"/>
<path d="M42.0616 30.4732V29.1138V20.9541V12.7944C42.0616 12.0476 41.449 11.435 40.7005 11.435H13.5043C12.7562 11.435 12.142 12.0446 12.142 12.7944V20.9541V29.1138V30.4732L8.7439 34.5531C8.7439 35.6771 9.65674 36.5912 10.7821 36.5912H43.4209C44.5463 36.5912 45.4592 35.6766 45.4592 34.5531L42.0616 30.4732ZM29.8238 35.9141H24.3845C24.1952 35.9141 24.0443 35.7632 24.0443 35.5739C24.0443 35.3846 24.1952 35.2336 24.3845 35.2336H29.8238C30.01 35.2336 30.164 35.3846 30.164 35.5739C30.1593 35.7632 30.01 35.9141 29.8238 35.9141ZM21.4963 34.5547L22.5338 33.3094H31.6696L32.7072 34.5547H21.4963ZM40.1464 28.0685C40.1464 28.7244 39.6121 29.2553 38.9608 29.2553H35.5908C35.158 28.5102 34.4715 27.9807 33.5556 27.6405C32.6702 27.3126 31.7992 26.9367 30.9383 26.5426C30.6936 26.4316 30.5121 26.1886 30.287 26.0161C30.1916 25.9408 30.0698 25.8715 29.9528 25.8543C29.5523 25.7911 29.3755 25.6465 29.2817 25.2525C29.157 24.7354 29.0679 24.2179 29.1771 23.6806C29.2232 23.4448 29.3096 23.2943 29.5373 23.2048C30.013 23.0185 30.4781 22.8138 30.9473 22.6137C31.3001 22.4645 31.3199 22.3414 31.1922 21.981C30.7873 20.8383 30.4901 19.6747 30.3899 18.4508C30.3297 17.6812 30.3481 16.8897 30.1618 16.1322H30.1296C30.1141 16.0612 30.1051 15.9907 30.0896 15.9214C29.7493 14.5852 28.3146 13.8552 27.1076 13.78C27.0985 13.78 27.0891 13.7769 27.0783 13.7769C26.9845 13.7709 26.8981 13.7829 26.8073 13.7894C26.2992 13.8617 25.8819 14.1822 25.4002 14.3237C24.7721 14.5082 24.3871 15.0859 24.15 15.7076C23.8175 16.5912 23.8778 17.535 23.805 18.4496C23.7065 19.6705 23.408 20.8345 23.0028 21.9766C22.875 22.3385 22.8982 22.4614 23.2475 22.6107C23.7186 22.8095 24.1806 23.0172 24.6577 23.2005C24.884 23.2912 24.9717 23.4392 25.0165 23.6776C25.1244 24.2166 25.038 24.7337 24.9132 25.2478C24.8177 25.6448 24.6409 25.7868 24.2404 25.8496C24.1234 25.8711 24.0047 25.9404 23.9062 26.0113C23.6828 26.1821 23.5013 26.4286 23.2566 26.5408C22.3928 26.9319 21.5247 27.3105 20.6376 27.6387C19.72 27.979 19.0382 28.5038 18.6054 29.2506H15.2336C14.5824 29.2506 14.0467 28.7181 14.0467 28.065V13.8367C14.0467 13.1824 14.5824 12.6498 15.2336 12.6498H38.9552C39.6065 12.6498 40.1421 13.1841 40.1421 13.8367V28.0654H40.1451V28.0685H40.1464Z" fill="white"/>
<defs>
<linearGradient id="paint0_linear_3_21" x1="18.2027" y1="19.2068" x2="60.8705" y2="34.4563" gradientUnits="userSpaceOnUse">
<stop stop-color="#8CB8FF"/>
<stop offset="1" stop-color="#3076E9"/>
</linearGradient>
</defs>
</svg>
