<svg width="32" height="16" viewBox="0 0 32 16" xmlns="http://www.w3.org/2000/svg"><path fill-rule="evenodd" clip-rule="evenodd" d="M23.212 1.09269C23.6 1.48576 23.5958 2.11891 23.2028 2.50688L10.3424 15.2002L0.797835 5.7796C0.404767 5.39164 0.400629 4.75849 0.788592 4.36542C1.17656 3.97235 1.80971 3.96821 2.20278 4.35618L10.3424 12.3901L21.7978 1.08345C22.1909 0.695487 22.8241 0.699626 23.212 1.09269Z" fill="#ffffff"/><path fill-rule="evenodd" clip-rule="evenodd" d="M31.2114 1.09269C31.5994 1.48576 31.5952 2.11891 31.2022 2.50688L18.3371 15.2048L14.2931 11.1601C13.9026 10.7695 13.9027 10.1364 14.2933 9.74589C14.6838 9.3554 15.317 9.35546 15.7075 9.74602L18.3465 12.3855L29.7972 1.08345C30.1903 0.695487 30.8234 0.699626 31.2114 1.09269Z" fill="#ffffff"/></svg>