<svg width="52" height="16" viewBox="0 0 52 16" fill="none" xmlns="http://www.w3.org/2000/svg">
<g clip-path="url(#clip0_4_41)">
<g clip-path="url(#clip1_4_41)">
<mask id="mask0_4_41" style="mask-type:luminance" maskUnits="userSpaceOnUse" x="0" y="0" width="52" height="16">
<path d="M52 0H0V16H52V0Z" fill="white"/>
</mask>
<g mask="url(#mask0_4_41)">
<path d="M5.76977 15.1705C5.40567 15.1705 5.08949 14.9936 4.92661 14.7239L0.672465 8.06567C0.557488 7.93082 0.5 7.76226 0.5 7.58527C0.5 7.40828 0.557488 7.23972 0.672465 7.10487L4.92661 0.446689C5.08949 0.17699 5.40567 0 5.76977 0H14.393C14.7571 0 15.0733 0.17699 15.2361 0.446689L19.4903 7.10487C19.6053 7.23972 19.6627 7.40828 19.6627 7.58527C19.6627 7.76226 19.6053 7.93082 19.4903 8.06567L15.2361 14.7239C15.0733 14.9936 14.7571 15.1705 14.393 15.1705H5.76977Z" fill="url(#paint0_linear_4_41)"/>
<path d="M28.5856 13.1744C28.3277 13.1744 28.1037 13.044 27.9884 12.8452L24.975 7.93922C24.8936 7.83986 24.8528 7.71565 24.8528 7.58524C24.8528 7.45483 24.8936 7.33062 24.975 7.23126L27.9884 2.32523C28.1037 2.12651 28.3277 1.99609 28.5856 1.99609H34.6937C34.9516 1.99609 35.1756 2.12651 35.291 2.32523L38.3043 7.23126C38.3858 7.33062 38.4265 7.45483 38.4265 7.58524C38.4265 7.71565 38.3858 7.83986 38.3043 7.93922L35.291 12.8452C35.1756 13.044 34.9516 13.1744 34.6937 13.1744H28.5856Z" fill="url(#paint1_linear_4_41)" fill-opacity="0.6"/>
<path d="M46.2114 10.7792C46.0597 10.7792 45.9279 10.7047 45.8601 10.5911L44.0875 7.78767C44.0396 7.73089 44.0156 7.65992 44.0156 7.5854C44.0156 7.51088 44.0396 7.4399 44.0875 7.38313L45.8601 4.57968C45.9279 4.46612 46.0597 4.3916 46.2114 4.3916H49.8044C49.9561 4.3916 50.0879 4.46612 50.1557 4.57968L51.9283 7.38313C51.9762 7.4399 52.0001 7.51088 52.0001 7.5854C52.0001 7.65992 51.9762 7.7309 51.9283 7.78767L50.1557 10.5911C50.0879 10.7047 49.9561 10.7792 49.8044 10.7792H46.2114Z" fill="url(#paint2_linear_4_41)" fill-opacity="0.6"/>
</g>
</g>
</g>
<defs>
<linearGradient id="paint0_linear_4_41" x1="12.0001" y1="5.08527" x2="8.8026" y2="17.7991" gradientUnits="userSpaceOnUse">
<stop stop-color="#8CB8FF"/>
<stop offset="1" stop-color="#3076E9"/>
</linearGradient>
<linearGradient id="paint1_linear_4_41" x1="32.9988" y1="5.74313" x2="30.5598" y2="15.0657" gradientUnits="userSpaceOnUse">
<stop stop-color="#8CB8FF"/>
<stop offset="1" stop-color="#3076E9"/>
</linearGradient>
<linearGradient id="paint2_linear_4_41" x1="48.8074" y1="6.53277" x2="47.4486" y2="11.8792" gradientUnits="userSpaceOnUse">
<stop stop-color="#8CB8FF"/>
<stop offset="1" stop-color="#3076E9"/>
</linearGradient>
<clipPath id="clip0_4_41">
<rect width="52" height="16" fill="white"/>
</clipPath>
<clipPath id="clip1_4_41">
<rect width="52" height="16" fill="white"/>
</clipPath>
</defs>
</svg>
