<svg width="52" height="17" viewBox="0 0 52 17" fill="none" xmlns="http://www.w3.org/2000/svg">
<g clip-path="url(#clip0_4_36)">
<path d="M46.2307 15.6705C46.5948 15.6705 46.9109 15.4936 47.0738 15.2239L51.328 8.56567C51.4429 8.43082 51.5004 8.26226 51.5004 8.08527C51.5004 7.90828 51.4429 7.73972 51.328 7.60487L47.0738 0.946689C46.9109 0.67699 46.5948 0.5 46.2307 0.5L37.6074 0.5C37.2433 0.5 36.9271 0.67699 36.7643 0.946689L32.5101 7.60487C32.3951 7.73972 32.3376 7.90828 32.3376 8.08527C32.3376 8.26226 32.3951 8.43082 32.5101 8.56567L36.7643 15.2239C36.9271 15.4936 37.2433 15.6705 37.6074 15.6705H46.2307Z" fill="url(#paint0_linear_4_36)"/>
<path d="M23.4151 13.6744C23.673 13.6744 23.897 13.544 24.0123 13.3452L27.0257 8.43922C27.1071 8.33986 27.1478 8.21565 27.1478 8.08524C27.1478 7.95483 27.1071 7.83062 27.0257 7.73126L24.0123 2.82523C23.897 2.62651 23.673 2.49609 23.4151 2.49609H17.3069C17.049 2.49609 16.8251 2.62651 16.7097 2.82523L13.6964 7.73126C13.6149 7.83062 13.5742 7.95483 13.5742 8.08524C13.5742 8.21565 13.6149 8.33986 13.6964 8.43922L16.7097 13.3452C16.8251 13.544 17.049 13.6744 17.3069 13.6744H23.4151Z" fill="url(#paint1_linear_4_36)" fill-opacity="0.6"/>
<path d="M5.78901 11.2792C5.94071 11.2792 6.07245 11.2047 6.14032 11.0911L7.91288 8.28767C7.96079 8.23089 7.98474 8.15992 7.98474 8.0854C7.98474 8.01088 7.96079 7.9399 7.91288 7.88313L6.14032 5.07968C6.07245 4.96612 5.94071 4.8916 5.789 4.8916H2.19598C2.04428 4.8916 1.91253 4.96612 1.84466 5.07968L0.0721047 7.88313C0.0241977 7.9399 0.000244138 8.01088 0.000244141 8.0854C0.000244144 8.15992 0.0241977 8.2309 0.0721047 8.28767L1.84466 11.0911C1.91253 11.2047 2.04428 11.2792 2.19598 11.2792H5.78901Z" fill="url(#paint2_linear_4_36)" fill-opacity="0.2"/>
</g>
<defs>
<linearGradient id="paint0_linear_4_36" x1="40.0002" y1="5.58527" x2="43.1978" y2="18.2991" gradientUnits="userSpaceOnUse">
<stop stop-color="#8CB8FF"/>
<stop offset="1" stop-color="#3076E9"/>
</linearGradient>
<linearGradient id="paint1_linear_4_36" x1="19.0019" y1="6.24313" x2="21.4409" y2="15.5657" gradientUnits="userSpaceOnUse">
<stop stop-color="#8CB8FF"/>
<stop offset="1" stop-color="#3076E9"/>
</linearGradient>
<linearGradient id="paint2_linear_4_36" x1="3.19299" y1="7.03277" x2="4.55181" y2="12.3792" gradientUnits="userSpaceOnUse">
<stop stop-color="#8CB8FF"/>
<stop offset="1" stop-color="#3076E9"/>
</linearGradient>
<clipPath id="clip0_4_36">
<rect width="52" height="16" fill="white" transform="translate(0 0.5)"/>
</clipPath>
</defs>
</svg>
