<svg width="28" height="28" viewBox="0 0 28 28" fill="none" xmlns="http://www.w3.org/2000/svg">
<path d="M24.8902 16.878L25.15 14.534C25.2886 13.2835 25.3801 12.4577 25.3083 11.9374L25.3333 11.9375C26.5069 11.9375 27.4583 11.0141 27.4583 9.875C27.4583 8.73591 26.5069 7.8125 25.3333 7.8125C24.1598 7.8125 23.2083 8.73591 23.2083 9.875C23.2083 10.3902 23.403 10.8612 23.7247 11.2227C23.2627 11.4994 22.659 12.0832 21.7499 12.962C21.0496 13.6391 20.6994 13.9776 20.3088 14.0301C20.0924 14.0591 19.8719 14.0293 19.6721 13.9439C19.3114 13.7896 19.0708 13.3712 18.5899 12.5343L16.0549 8.12243C15.7581 7.60607 15.5097 7.17391 15.2859 6.82614C16.2043 6.37132 16.8333 5.44445 16.8333 4.375C16.8333 2.85622 15.5649 1.625 14 1.625C12.4352 1.625 11.1667 2.85622 11.1667 4.375C11.1667 5.44445 11.7957 6.37132 12.7141 6.82614C12.4903 7.17394 12.2419 7.60603 11.9451 8.12243L9.41009 12.5343C8.92913 13.3712 8.68865 13.7896 8.32797 13.9439C8.12812 14.0293 7.90758 14.0591 7.69116 14.0301C7.30054 13.9776 6.9504 13.6391 6.25013 12.962C5.34115 12.0832 4.73721 11.4994 4.27534 11.2227C4.59707 10.8612 4.79167 10.3902 4.79167 9.875C4.79167 8.73591 3.84028 7.8125 2.66667 7.8125C1.49306 7.8125 0.541668 8.73591 0.541668 9.875C0.541668 11.0141 1.49306 11.9375 2.66667 11.9375L2.69176 11.9374C2.61995 12.4577 2.71146 13.2835 2.85006 14.534L3.1098 16.878C3.25399 18.179 3.37388 19.4169 3.52073 20.5312H24.4792C24.6261 19.4169 24.746 18.179 24.8902 16.878Z" fill="#1C274C"/>
<path d="M12.4589 26.375H15.5413C19.5589 26.375 21.5676 26.375 22.9079 25.2107C23.493 24.7023 23.8633 23.7861 24.1306 22.5938H3.86943C4.13674 23.7861 4.50717 24.7023 5.09218 25.2107C6.43247 26.375 8.44125 26.375 12.4589 26.375Z" fill="#1C274C"/>
</svg>
