<svg width="0" height="0" class="hidden">
  <symbol xmlns="http://www.w3.org/2000/svg" viewBox="0 0 30 30" id="arrow">
    <path fill-rule="evenodd" clip-rule="evenodd" d="M0 15C0 14.4477 0.447715 14 1 14H29C29.5523 14 30 14.4477 30 15C30 15.5523 29.5523 16 29 16H1C0.447715 16 0 15.5523 0 15Z"></path>
    <path fill-rule="evenodd" clip-rule="evenodd" d="M15 30C14.4477 30 14 29.5523 14 29L14 1C14 0.447714 14.4477 -1.95703e-08 15 -4.37114e-08C15.5523 -6.78525e-08 16 0.447714 16 1L16 29C16 29.5523 15.5523 30 15 30Z"></path>
  </symbol>
  <symbol xmlns="http://www.w3.org/2000/svg" viewBox="0 0 24 24" id="close">
    <path d="M19 6.41L17.59 5L12 10.59L6.41 5L5 6.41L10.59 12L5 17.59L6.41 19L12 13.41L17.59 19L19 17.59L13.41 12L19 6.41Z"></path>
  </symbol>
</svg>